<svg xmlns="http://www.w3.org/2000/svg" viewBox="0 0 1290.76 1290.76"><defs><style>.cls-1{fill:#3e553d;}</style></defs><g id="Layer_2" data-name="Layer 2"><g id="Layer_1-2" data-name="Layer 1"><path class="cls-1" d="M494.91,487.32V591.51a28.3,28.3,0,1,0,56.6,0V487.32a28.3,28.3,0,1,0-56.6,0Z"/><rect class="cls-1" x="749.67" y="459.02" width="56.61" height="160.8" rx="28.3"/><rect class="cls-1" x="622.28" y="459.02" width="56.61" height="160.8" rx="28.3"/><rect class="cls-1" x="494.9" y="392.74" width="311.38" height="48.26" rx="2.8"/><path class="cls-1" d="M1240,394.16A645.57,645.57,0,0,0,15.85,788.07a639.07,639.07,0,0,0,98.4,224,647.52,647.52,0,0,0,124,134.08c8.36,6.82,17,13.5,25.68,19.87a640.24,640.24,0,0,0,222.58,105l.62.15.56.15c4.9,1.22,9.91,2.42,14.92,3.55A645.69,645.69,0,0,0,606,1289.57l.54,0c8.9.53,18,.88,26.93,1l3.33,0c.94,0,1.9,0,2.85,0l2.84,0h2.89c12.94,0,26-.39,38.91-1.16,3.4-.2,6.79-.43,10.23-.69,15.51-1.17,31.17-2.92,46.52-5.19,11.22-1.67,22.6-3.67,33.87-6,5.42-1.1,10.45-2.19,15.35-3.33,3.29-.75,6.61-1.54,9.9-2.34,4.21-1,8.63-2.18,13.51-3.49.36-.1.73-.19,1.09-.3L816,1268l3.57-1c2.43-.67,4.84-1.37,7.17-2l4.13-1.21c10-3,19.85-6.22,29.41-9.61l2.62-.92,5.55-2c1.41-.52,2.82-1,4.24-1.58l.6-.23c.91-.33,1.81-.68,2.72-1l.33-.13c2.84-1.09,5.7-2.21,8.5-3.33.55-.21,1.09-.43,1.64-.66l3.87-1.57c.75-.31,1.5-.61,2.24-.93q1.41-.57,2.79-1.17l.93-.38,1.72-.73.36-.16c1.37-.57,2.72-1.16,4.08-1.75l.83-.36,1.38-.61c1.78-.77,3.55-1.57,5.31-2.36,2.27-1,4.51-2,6.76-3.09.79-.36,1.57-.73,2.34-1.1,1.64-.75,3.27-1.53,4.85-2.29q3.25-1.56,6.49-3.15l16.74-8.26v-.3c.57-.31,1.14-.61,1.71-.93,5.45-2.89,11-6,16.48-9.1l3.91-1.28,2.36-2.35c1.13-.65,2.24-1.31,3.31-2s2.06-1.22,3.1-1.85c1.21-.71,2.4-1.43,3.59-2.17l.07,0,2.63-1.62q1.27-.78,2.55-1.59c1-.59,1.92-1.2,2.88-1.81,3.84-2.41,7.78-5,11.71-7.58,1-.65,2-1.31,3-2q2.61-1.74,5.21-3.53l2-1.39.7-.48,2.23-1.57c3-2.1,6.11-4.29,9.18-6.52,1-.71,2-1.43,3-2.16q2-1.42,3.9-2.87l.15-.11c1.89-1.41,3.78-2.83,5.65-4.27,1.65-1.25,3.3-2.53,4.94-3.81,2.08-1.62,4.16-3.24,6.23-4.9l1.29-1,.5-.41c2.77-2.22,5.55-4.49,8.27-6.75l.64-.54,2.82-2.37c2.2-1.85,4.44-3.77,6.65-5.69.57-.48,1.14-1,1.71-1.48l2.3-2c.48-.41,1.1-1,1.78-1.58,2.76-2.43,5.28-4.7,7.66-6.88,5.61-5.13,11.34-10.58,17-16.2l.08-.07,2.74-2.73c2.11-2.1,4.34-4.34,6.61-6.67l.74-.76,2-2.13c1.76-1.83,3.51-3.67,5.29-5.57l.77-.82,1.81-1.94,3.72-4,3.35-3.7c.24-.25.47-.51.69-.77q1.73-1.92,3.42-3.86l.11-.12,2.85-3.25,2.67-2.71.46-.91c.49-.56,1-1.13,1.45-1.7,2.19-2.57,4.44-5.25,6.68-8h.63l6.56-8.74,1.58-1.6.77-1.54.59-.76c.54-.68,1.07-1.37,1.6-2.06l.78-.77,1.21-1.8.85-1.1,1.61-2.1c.25-.31.48-.63.72-1l1.86-2.44v0q2.18-2.91,4.32-5.83l1.6-2,.25-.51c1.12-1.54,2.22-3.09,3.31-4.62s2.11-3,3.15-4.49,2.1-3,3.16-4.56c2.88-4.2,5.64-8.34,8.22-12.31.29-.44.58-.88.86-1.32l.42-.65c.4-.62.8-1.24,1.19-1.86l6.85-11,6.5-10.74a645.42,645.42,0,0,0,40.74-82.35l2.23-5.47v-.1l1.56-3.94.35-.72.46-1.37c.59-1.54,1.18-3.08,1.74-4.57.73-1.93,1.45-3.87,2.13-5.73.38-1,.76-2.07,1.14-3.15.14-.37.28-.75.41-1.12.38-1.08.77-2.16,1.15-3.25.56-1.56,1.11-3.13,1.63-4.67,3.69-10.72,7.12-21.67,10.21-32.52,1.21-4.25,2.39-8.57,3.52-12.84l1-3.78v0a644.22,644.22,0,0,0,16-87,655.06,655.06,0,0,0,4.15-73.58A641.42,641.42,0,0,0,1240,394.16ZM645.38,60c322.78,0,585.38,262.6,585.38,585.38a593.9,593.9,0,0,1-3.77,66.81,584.69,584.69,0,0,1-13.22,73.74c-35-29.15-81.35-49-134-53.94-53.7-5.08-105.12,6.11-147.35,28.91a296.18,296.18,0,0,0-126.15-38.11q-10.57-.74-21.36-.74a297.38,297.38,0,0,0-134.27,31.73,295.22,295.22,0,0,0-64.06-23.47,300.5,300.5,0,0,0-70.22-8.26q-10.83,0-21.46.75h0a296.2,296.2,0,0,0-126,38.1c-42.23-22.79-93.65-34-147.35-28.91-57.09,5.39-106.81,28.25-142.6,61.52q-2.41-9.27-4.54-18.65A589,589,0,0,1,60,645.38C60,322.6,322.6,60,645.38,60ZM806.32,1108.24H495v-208H806.32Zm-.05-264.92H494.9V766.56q10.64-.76,21.46-.76a297.27,297.27,0,0,1,134.28,31.74A297.26,297.26,0,0,1,784.91,765.8q10.77,0,21.36.75ZM494.91,1168.51H806.27v39.87l-2.85.81-3.15.86-.26.08h0l-1.55.42c-4.6,1.24-8.72,2.3-12.56,3.25-3,.74-6,1.46-9.11,2.16-4.41,1-8.95,2-13.85,3-10.21,2.08-20.53,3.9-30.69,5.4-13.94,2.07-28.15,3.66-42.18,4.72-3.14.23-6.29.44-9.38.63-11.67.7-23.54,1-35.3,1h-2.74l-2.39,0h-.42l-1.83,0h-.43l-3,0c-8.12-.14-16.31-.45-24.35-.93l-.53,0a585.35,585.35,0,0,1-93.76-13.29c-4.58-1-9.18-2.14-13.68-3.27l-1-.24-.14,0c-2.06-.52-4.12-1.06-6.18-1.6Z"/><path class="cls-1" d="M650.65,712.2a290.67,290.67,0,0,1,134.27-32.64q10.77,0,21.36.77V639.12a2.79,2.79,0,0,0-2.8-2.79H497.7a2.79,2.79,0,0,0-2.8,2.79v41.22q10.64-.78,21.47-.78A290.68,290.68,0,0,1,650.65,712.2Z"/><path class="cls-1" d="M497,370.1H804.23a2,2,0,0,0,2-2v-4.33a1.88,1.88,0,0,0-.29-1h.29c-14.74-56.2-64.76-99.8-127.39-110a176.07,176.07,0,0,0-56.61,0C559.66,263,509.65,306.6,494.9,362.79h.29a1.88,1.88,0,0,0-.29,1v4.33A2,2,0,0,0,497,370.1Z"/><path class="cls-1" d="M678.89,234.77v-5.45a28.31,28.31,0,0,0-56.61,0v5.45a176.07,176.07,0,0,1,56.61,0Z"/><path class="cls-1" d="M605.51,1017.65a6.59,6.59,0,0,1,1.91,5.86l-6,34.78a6.63,6.63,0,0,0,9.62,7l31.23-16.42a6.64,6.64,0,0,1,6.16,0l31.23,16.42a6.63,6.63,0,0,0,9.62-7l-6-34.78a6.59,6.59,0,0,1,1.91-5.86L710.51,993a6.62,6.62,0,0,0-3.67-11.3l-34.92-5.07a6.63,6.63,0,0,1-5-3.63l-15.62-31.64a6.63,6.63,0,0,0-11.88,0L623.82,973a6.63,6.63,0,0,1-5,3.63l-34.92,5.07a6.62,6.62,0,0,0-3.67,11.3Z"/></g></g></svg>